<?xml version="1.0" encoding="UTF-8" standalone="no"?>
<!DOCTYPE svg PUBLIC "-//W3C//DTD SVG 1.1//EN"
 "http://www.w3.org/Graphics/SVG/1.1/DTD/svg11.dtd">
<!-- Generated by graphviz version 2.43.0 (0)
 -->
<!-- Title: G Pages: 1 -->
<svg width="657pt" height="98pt"
 viewBox="0.00 0.00 657.00 98.00" xmlns="http://www.w3.org/2000/svg" xmlns:xlink="http://www.w3.org/1999/xlink">
<g id="graph0" class="graph" transform="scale(1 1) rotate(0) translate(4 94)">
<title>G</title>
<polygon fill="white" stroke="transparent" points="-4,4 -4,-94 653,-94 653,4 -4,4"/>
<!-- google_compute_address.vm_static_ip -->
<g id="node1" class="node">
<title>google_compute_address.vm_static_ip</title>
<polygon fill="none" stroke="black" points="287.5,-36 5.5,-36 5.5,0 287.5,0 287.5,-36"/>
<text text-anchor="middle" x="146.5" y="-14.3" font-family="sans-serif" font-size="14.00">google_compute_address.vm_static_ip</text>
</g>
<!-- google_compute_instance.another_instance -->
<g id="node2" class="node">
<title>google_compute_instance.another_instance</title>
<polygon fill="none" stroke="black" points="649,-90 329,-90 329,-54 649,-54 649,-90"/>
<text text-anchor="middle" x="489" y="-68.3" font-family="sans-serif" font-size="14.00">google_compute_instance.another_instance</text>
</g>
<!-- google_storage_bucket.example_bucket -->
<g id="node4" class="node">
<title>google_storage_bucket.example_bucket</title>
<polygon fill="none" stroke="black" points="293,-90 0,-90 0,-54 293,-54 293,-90"/>
<text text-anchor="middle" x="146.5" y="-68.3" font-family="sans-serif" font-size="14.00">google_storage_bucket.example_bucket</text>
</g>
<!-- google_compute_instance.another_instance&#45;&gt;google_storage_bucket.example_bucket -->
<g id="edge1" class="edge">
<title>google_compute_instance.another_instance&#45;&gt;google_storage_bucket.example_bucket</title>
<path fill="none" stroke="black" d="M328.72,-72C320.29,-72 311.82,-72 303.4,-72"/>
<polygon fill="black" stroke="black" points="303.17,-68.5 293.17,-72 303.17,-75.5 303.17,-68.5"/>
</g>
<!-- google_compute_instance.vm_instance -->
<g id="node3" class="node">
<title>google_compute_instance.vm_instance</title>
<polygon fill="none" stroke="black" points="632.5,-36 345.5,-36 345.5,0 632.5,0 632.5,-36"/>
<text text-anchor="middle" x="489" y="-14.3" font-family="sans-serif" font-size="14.00">google_compute_instance.vm_instance</text>
</g>
<!-- google_compute_instance.vm_instance&#45;&gt;google_compute_address.vm_static_ip -->
<g id="edge2" class="edge">
<title>google_compute_instance.vm_instance&#45;&gt;google_compute_address.vm_static_ip</title>
<path fill="none" stroke="black" d="M345.08,-18C329.48,-18 313.56,-18 297.87,-18"/>
<polygon fill="black" stroke="black" points="297.6,-14.5 287.6,-18 297.6,-21.5 297.6,-14.5"/>
</g>
</g>
</svg>
